<svg width="24" height="24" viewBox="0 0 24 24" version="1.1" xmlns="http://www.w3.org/2000/svg"><g class="nc-icon-wrapper" stroke="none" fill="#111111"><g id="icons/regular/file-edit" stroke="none" stroke-width="1" fill="none" fill-rule="evenodd"><path d="M8 2v4a1 1 0 0 1-1 1H3v14a1 1 0 0 0 1 1h12a1 1 0 0 0 1-1v-6.586l-3.293 3.293A1 1 0 0 1 13 18h-3a1 1 0 0 1-1-1v-3a1 1 0 0 1 .293-.707L17 5.586V3a1 1 0 0 0-1-1H8zm-2 .126A4.007 4.007 0 0 0 3.126 5H6V2.126zm13 10.288V21a3 3 0 0 1-3 3H4a3 3 0 0 1-3-3V6a6 6 0 0 1 6-6h9a3 3 0 0 1 3 3v1c.256 0 .512.098.707.293l3 3a1 1 0 0 1 0 1.414L19 12.414zM12.586 16l8-8L19 6.414l-8 8V16h1.586z" id="Shape" fill="#111111"></path></g></g></svg>