<svg width="24" height="24" viewBox="0 0 24 24" version="1.1" xmlns="http://www.w3.org/2000/svg"><g class="nc-icon-wrapper" stroke="none" fill="#111111"><g id="icons/regular/key" stroke="none" stroke-width="1" fill="none" fill-rule="evenodd"><path d="M18 14v-1a1 1 0 0 1 2 0v1h1a1 1 0 0 0 1-1v-2a1 1 0 0 0-1-1h-9.416a5.001 5.001 0 1 0 0 4H14v-1a1 1 0 0 1 2 0v1h2zm3-6a3 3 0 0 1 3 3v2a3 3 0 0 1-3 3h-8.254a7 7 0 1 1 0-8H21zM5 13a1 1 0 1 1 0-2 1 1 0 0 1 0 2z" id="Shape" fill="#111111"></path></g></g></svg>