<svg width="24" height="24" viewBox="0 0 24 24" version="1.1" xmlns="http://www.w3.org/2000/svg"><g class="nc-icon-wrapper" stroke="none" fill="#111111"><g id="icons/solid/sign-out" stroke="none" stroke-width="1" fill="none" fill-rule="evenodd"><path d="M12 4.77l-9-1.5v17.46l9-1.5V17a1.5 1.5 0 0 1 3 0v2.653a2.5 2.5 0 0 1-2.089 2.466l-10 1.667A2.5 2.5 0 0 1 0 21.32V2.68A2.5 2.5 0 0 1 2.911.214l10 1.667A2.5 2.5 0 0 1 15 4.347V7a1.5 1.5 0 0 1-3 0V4.77zm6.879 8.73H7a1.5 1.5 0 0 1 0-3h11.879l-.44-.44a1.5 1.5 0 0 1 2.122-2.12l3 3a1.5 1.5 0 0 1 0 2.12l-3 3a1.5 1.5 0 0 1-2.122-2.12l.44-.44z" id="Shape" fill="#111111" fill-rule="nonzero"></path></g></g></svg>