<svg width="24" height="24" viewBox="0 0 24 24" version="1.1" xmlns="http://www.w3.org/2000/svg"><g class="nc-icon-wrapper" stroke="none" fill="#111111"><g id="icons/regular/plus-circle" stroke="none" stroke-width="1" fill="none" fill-rule="evenodd"><path d="M11 11V7a1 1 0 0 1 2 0v4h4a1 1 0 0 1 0 2h-4v4a1 1 0 0 1-2 0v-4H7a1 1 0 0 1 0-2h4zm1-9C6.477 2 2 6.477 2 12s4.477 10 10 10 10-4.477 10-10S17.523 2 12 2zm12 10c0 6.627-5.373 12-12 12S0 18.627 0 12 5.373 0 12 0s12 5.373 12 12z" id="Shape" fill="#111111"></path></g></g></svg>