<svg width="24" height="24" viewBox="0 0 24 24" version="1.1" xmlns="http://www.w3.org/2000/svg"><g class="nc-icon-wrapper" stroke="none" fill="#111111"><g id="icons/regular/tag" stroke="none" stroke-width="1" fill="none" fill-rule="evenodd"><path d="M3.828 13L11 20.172l11-11V2h-7.172l-11 11zm-2.12-.707l12-12A1 1 0 0 1 14.413 0H22a2 2 0 0 1 2 2v7.586a1 1 0 0 1-.293.707l-12 12a1 1 0 0 1-1.414 0l-8.586-8.586a1 1 0 0 1 0-1.414zM18 8a2 2 0 1 1 0-4 2 2 0 0 1 0 4z" id="Shape" fill="#111111"></path></g></g></svg>