<svg width="24" height="24" viewBox="0 0 24 24" version="1.1" xmlns="http://www.w3.org/2000/svg"><g class="nc-icon-wrapper" stroke="none" fill="#111111"><g id="icons/regular/times-hexagon-" stroke="none" stroke-width="1" fill="none" fill-rule="evenodd"><path d="M10.586 12L8.293 9.707a1 1 0 0 1 1.414-1.414L12 10.586l2.293-2.293a1 1 0 0 1 1.414 1.414L13.414 12l2.293 2.293a1 1 0 0 1-1.414 1.414L12 13.414l-2.293 2.293a1 1 0 1 1-1.414-1.414L10.586 12zM7.243 0h9.514a3 3 0 0 1 2.122.879L23.12 5.12A3 3 0 0 1 24 7.243v9.514a3 3 0 0 1-.879 2.122L18.88 23.12a3 3 0 0 1-2.122.879H7.243a3 3 0 0 1-2.122-.879L.88 18.88A3 3 0 0 1 0 16.757V7.243A3 3 0 0 1 .879 5.12L5.12.88A3 3 0 0 1 7.243 0zm0 2a1 1 0 0 0-.707.293L2.293 6.536A1 1 0 0 0 2 7.243v9.514a1 1 0 0 0 .293.707l4.243 4.243a1 1 0 0 0 .707.293h9.514a1 1 0 0 0 .707-.293l4.243-4.243a1 1 0 0 0 .293-.707V7.243a1 1 0 0 0-.293-.707l-4.243-4.243A1 1 0 0 0 16.757 2H7.243z" id="Shape" fill="#111111"></path></g></g></svg>